<?xml version="1.0" encoding="UTF-8" standalone="no"?>
<!DOCTYPE svg PUBLIC "-//W3C//DTD SVG 1.1//EN"
 "http://www.w3.org/Graphics/SVG/1.1/DTD/svg11.dtd">
<!-- Generated by graphviz version 2.40.1 (20161225.0304)
 -->
<!-- Title: dependencies Pages: 1 -->
<svg width="5381pt" height="284pt"
 viewBox="0.00 0.00 5381.00 284.00" xmlns="http://www.w3.org/2000/svg" xmlns:xlink="http://www.w3.org/1999/xlink">
<g id="graph0" class="graph" transform="scale(1 1) rotate(0) translate(4 280)">
<title>dependencies</title>
<polygon fill="#ffffff" stroke="transparent" points="-4,4 -4,-280 5377,-280 5377,4 -4,4"/>
<text text-anchor="start" x="2665.5091" y="-42.4" font-family="sans-serif" font-weight="bold" font-size="14.00" fill="#000000">Legend</text>
<polygon fill="#ffffb3" stroke="transparent" points="2452.5,-10 2452.5,-30 2472.5,-30 2472.5,-10 2452.5,-10"/>
<text text-anchor="start" x="2476.129" y="-15.4" font-family="sans-serif" font-size="14.00" fill="#000000"> &#160;Declarations</text>
<polygon fill="#8dd3c7" stroke="transparent" points="2565.5,-10 2565.5,-30 2585.5,-30 2585.5,-10 2565.5,-10"/>
<text text-anchor="start" x="2589.2251" y="-15.4" font-family="sans-serif" font-size="14.00" fill="#000000"> &#160;Module</text>
<polygon fill="#80b1d3" stroke="transparent" points="2651.5,-10 2651.5,-30 2671.5,-30 2671.5,-10 2651.5,-10"/>
<text text-anchor="start" x="2675.2812" y="-15.4" font-family="sans-serif" font-size="14.00" fill="#000000"> &#160;Bootstrap</text>
<polygon fill="#fdb462" stroke="transparent" points="2748.5,-10 2748.5,-30 2768.5,-30 2768.5,-10 2748.5,-10"/>
<text text-anchor="start" x="2772.1732" y="-15.4" font-family="sans-serif" font-size="14.00" fill="#000000"> &#160;Providers</text>
<polygon fill="#fb8072" stroke="transparent" points="2844.5,-10 2844.5,-30 2864.5,-30 2864.5,-10 2844.5,-10"/>
<text text-anchor="start" x="2868.2258" y="-15.4" font-family="sans-serif" font-size="14.00" fill="#000000"> &#160;Exports</text>
<g id="clust1" class="cluster">
<title>cluster_AppModule</title>
<polygon fill="none" stroke="#000000" stroke-dasharray="1,5" points="8,-70 8,-268 5365,-268 5365,-70 8,-70"/>
</g>
<g id="clust2" class="cluster">
<title>cluster_AppModule_declarations</title>
<polygon fill="none" stroke="#000000" points="870,-78 870,-130 5357,-130 5357,-78 870,-78"/>
</g>
<g id="clust30" class="cluster">
<title>cluster_AppModule_imports</title>
<polygon fill="none" stroke="#000000" points="568,-78 568,-130 862,-130 862,-78 568,-78"/>
</g>
<g id="clust32" class="cluster">
<title>cluster_AppModule_bootstrap</title>
<polygon fill="none" stroke="#000000" points="2622,-208 2622,-260 2746,-260 2746,-208 2622,-208"/>
</g>
<g id="clust33" class="cluster">
<title>cluster_AppModule_providers</title>
<polygon fill="none" stroke="#000000" points="16,-78 16,-130 560,-130 560,-78 16,-78"/>
</g>
<!-- AboutComponent -->
<g id="node1" class="node">
<title>AboutComponent</title>
<polygon fill="#ffffb3" stroke="#000000" points="5349.3301,-122 5232.6699,-122 5232.6699,-86 5349.3301,-86 5349.3301,-122"/>
<text text-anchor="middle" x="5291" y="-99.8" font-family="Times,serif" font-size="14.00" fill="#000000">AboutComponent</text>
</g>
<!-- AppModule -->
<g id="node28" class="node">
<title>AppModule</title>
<polygon fill="#8dd3c7" stroke="#000000" points="2725.6571,-187 2722.6571,-191 2701.6571,-191 2698.6571,-187 2642.3429,-187 2642.3429,-151 2725.6571,-151 2725.6571,-187"/>
<text text-anchor="middle" x="2684" y="-164.8" font-family="Times,serif" font-size="14.00" fill="#000000">AppModule</text>
</g>
<!-- AboutComponent&#45;&gt;AppModule -->
<g id="edge1" class="edge">
<title>AboutComponent&#45;&gt;AppModule</title>
<path fill="none" stroke="#000000" d="M5291,-122.3802C5291,-146.2785 5291,-185 5291,-185 5291,-185 2735.7405,-185 2735.7405,-185"/>
<polygon fill="#000000" stroke="#000000" points="2735.7405,-181.5001 2725.7405,-185 2735.7405,-188.5001 2735.7405,-181.5001"/>
</g>
<!-- AddCarComponent -->
<g id="node2" class="node">
<title>AddCarComponent</title>
<polygon fill="#ffffb3" stroke="#000000" points="5214.6513,-122 5089.3487,-122 5089.3487,-86 5214.6513,-86 5214.6513,-122"/>
<text text-anchor="middle" x="5152" y="-99.8" font-family="Times,serif" font-size="14.00" fill="#000000">AddCarComponent</text>
</g>
<!-- AddCarComponent&#45;&gt;AppModule -->
<g id="edge2" class="edge">
<title>AddCarComponent&#45;&gt;AppModule</title>
<path fill="none" stroke="#000000" d="M5152,-122.3228C5152,-145.6602 5152,-183 5152,-183 5152,-183 2735.8012,-183 2735.8012,-183"/>
<polygon fill="#000000" stroke="#000000" points="2735.8013,-179.5001 2725.8012,-183 2735.8012,-186.5001 2735.8013,-179.5001"/>
</g>
<!-- AddCardComponent -->
<g id="node3" class="node">
<title>AddCardComponent</title>
<polygon fill="#ffffb3" stroke="#000000" points="5071.1513,-122 4938.8487,-122 4938.8487,-86 5071.1513,-86 5071.1513,-122"/>
<text text-anchor="middle" x="5005" y="-99.8" font-family="Times,serif" font-size="14.00" fill="#000000">AddCardComponent</text>
</g>
<!-- AddCardComponent&#45;&gt;AppModule -->
<g id="edge3" class="edge">
<title>AddCardComponent&#45;&gt;AppModule</title>
<path fill="none" stroke="#000000" d="M5005,-122.2479C5005,-145.0179 5005,-181 5005,-181 5005,-181 2735.7671,-181 2735.7671,-181"/>
<polygon fill="#000000" stroke="#000000" points="2735.7671,-177.5001 2725.7671,-181 2735.7671,-184.5001 2735.7671,-177.5001"/>
</g>
<!-- AddLoggerDeviceComponent -->
<g id="node4" class="node">
<title>AddLoggerDeviceComponent</title>
<polygon fill="#ffffb3" stroke="#000000" points="4920.5085,-122 4735.4915,-122 4735.4915,-86 4920.5085,-86 4920.5085,-122"/>
<text text-anchor="middle" x="4828" y="-99.8" font-family="Times,serif" font-size="14.00" fill="#000000">AddLoggerDeviceComponent</text>
</g>
<!-- AddLoggerDeviceComponent&#45;&gt;AppModule -->
<g id="edge4" class="edge">
<title>AddLoggerDeviceComponent&#45;&gt;AppModule</title>
<path fill="none" stroke="#000000" d="M4828,-122.2921C4828,-144.2057 4828,-178 4828,-178 4828,-178 2735.8659,-178 2735.8659,-178"/>
<polygon fill="#000000" stroke="#000000" points="2735.8659,-174.5001 2725.8659,-178 2735.8658,-181.5001 2735.8659,-174.5001"/>
</g>
<!-- AppComponent -->
<g id="node5" class="node">
<title>AppComponent</title>
<polygon fill="#ffffb3" stroke="#000000" points="4717.9399,-122 4612.0601,-122 4612.0601,-86 4717.9399,-86 4717.9399,-122"/>
<text text-anchor="middle" x="4665" y="-99.8" font-family="Times,serif" font-size="14.00" fill="#000000">AppComponent</text>
</g>
<!-- AppComponent&#45;&gt;AppModule -->
<g id="edge5" class="edge">
<title>AppComponent&#45;&gt;AppModule</title>
<path fill="none" stroke="#000000" d="M4665,-122.1686C4665,-143.498 4665,-176 4665,-176 4665,-176 2735.8331,-176 2735.8331,-176"/>
<polygon fill="#000000" stroke="#000000" points="2735.8331,-172.5001 2725.8331,-176 2735.833,-179.5001 2735.8331,-172.5001"/>
</g>
<!-- AssignLoggerDeviceComponent -->
<g id="node6" class="node">
<title>AssignLoggerDeviceComponent</title>
<polygon fill="#ffffb3" stroke="#000000" points="4594.2878,-122 4393.7122,-122 4393.7122,-86 4594.2878,-86 4594.2878,-122"/>
<text text-anchor="middle" x="4494" y="-99.8" font-family="Times,serif" font-size="14.00" fill="#000000">AssignLoggerDeviceComponent</text>
</g>
<!-- AssignLoggerDeviceComponent&#45;&gt;AppModule -->
<g id="edge6" class="edge">
<title>AssignLoggerDeviceComponent&#45;&gt;AppModule</title>
<path fill="none" stroke="#000000" d="M4494,-122.0267C4494,-142.7672 4494,-174 4494,-174 4494,-174 2736.0766,-174 2736.0766,-174"/>
<polygon fill="#000000" stroke="#000000" points="2736.0767,-170.5001 2726.0766,-174 2736.0766,-177.5001 2736.0767,-170.5001"/>
</g>
<!-- AssignRolesComponent -->
<g id="node7" class="node">
<title>AssignRolesComponent</title>
<polygon fill="#ffffb3" stroke="#000000" points="4376.1052,-122 4223.8948,-122 4223.8948,-86 4376.1052,-86 4376.1052,-122"/>
<text text-anchor="middle" x="4300" y="-99.8" font-family="Times,serif" font-size="14.00" fill="#000000">AssignRolesComponent</text>
</g>
<!-- AssignRolesComponent&#45;&gt;AppModule -->
<g id="edge7" class="edge">
<title>AssignRolesComponent&#45;&gt;AppModule</title>
<path fill="none" stroke="#000000" d="M4300,-122.2228C4300,-142.3652 4300,-172 4300,-172 4300,-172 2735.9809,-172 2735.9809,-172"/>
<polygon fill="#000000" stroke="#000000" points="2735.9809,-168.5001 2725.9809,-172 2735.9809,-175.5001 2735.9809,-168.5001"/>
</g>
<!-- CarLogsComponent -->
<g id="node8" class="node">
<title>CarLogsComponent</title>
<polygon fill="#ffffb3" stroke="#000000" points="4205.5422,-122 4076.4578,-122 4076.4578,-86 4205.5422,-86 4205.5422,-122"/>
<text text-anchor="middle" x="4141" y="-99.8" font-family="Times,serif" font-size="14.00" fill="#000000">CarLogsComponent</text>
</g>
<!-- CarLogsComponent&#45;&gt;AppModule -->
<g id="edge8" class="edge">
<title>CarLogsComponent&#45;&gt;AppModule</title>
<path fill="none" stroke="#000000" d="M4141,-122.1061C4141,-141.3391 4141,-169 4141,-169 4141,-169 2736.0339,-169 2736.0339,-169"/>
<polygon fill="#000000" stroke="#000000" points="2736.0339,-165.5001 2726.0339,-169 2736.0338,-172.5001 2736.0339,-165.5001"/>
</g>
<!-- CarProfileComponent -->
<g id="node9" class="node">
<title>CarProfileComponent</title>
<polygon fill="#ffffb3" stroke="#000000" points="4057.6443,-122 3918.3557,-122 3918.3557,-86 4057.6443,-86 4057.6443,-122"/>
<text text-anchor="middle" x="3988" y="-99.8" font-family="Times,serif" font-size="14.00" fill="#000000">CarProfileComponent</text>
</g>
<!-- CarProfileComponent&#45;&gt;AppModule -->
<g id="edge9" class="edge">
<title>CarProfileComponent&#45;&gt;AppModule</title>
<path fill="none" stroke="#000000" d="M3988,-122.2222C3988,-140.8285 3988,-167 3988,-167 3988,-167 2735.9095,-167 2735.9095,-167"/>
<polygon fill="#000000" stroke="#000000" points="2735.9095,-163.5001 2725.9095,-167 2735.9095,-170.5001 2735.9095,-163.5001"/>
</g>
<!-- CarsComponent -->
<g id="node10" class="node">
<title>CarsComponent</title>
<polygon fill="#ffffb3" stroke="#000000" points="3900.4888,-122 3793.5112,-122 3793.5112,-86 3900.4888,-86 3900.4888,-122"/>
<text text-anchor="middle" x="3847" y="-99.8" font-family="Times,serif" font-size="14.00" fill="#000000">CarsComponent</text>
</g>
<!-- CarsComponent&#45;&gt;AppModule -->
<g id="edge10" class="edge">
<title>CarsComponent&#45;&gt;AppModule</title>
<path fill="none" stroke="#000000" d="M3847,-122.302C3847,-140.2699 3847,-165 3847,-165 3847,-165 2735.7347,-165 2735.7347,-165"/>
<polygon fill="#000000" stroke="#000000" points="2735.7347,-161.5001 2725.7347,-165 2735.7346,-168.5001 2735.7347,-161.5001"/>
</g>
<!-- ChangePasswordComponent -->
<g id="node11" class="node">
<title>ChangePasswordComponent</title>
<polygon fill="#ffffb3" stroke="#000000" points="3775.752,-122 3598.248,-122 3598.248,-86 3775.752,-86 3775.752,-122"/>
<text text-anchor="middle" x="3687" y="-99.8" font-family="Times,serif" font-size="14.00" fill="#000000">ChangePasswordComponent</text>
</g>
<!-- ChangePasswordComponent&#45;&gt;AppModule -->
<g id="edge11" class="edge">
<title>ChangePasswordComponent&#45;&gt;AppModule</title>
<path fill="none" stroke="#000000" d="M3687,-122.0225C3687,-139.3734 3687,-163 3687,-163 3687,-163 2735.8207,-163 2735.8207,-163"/>
<polygon fill="#000000" stroke="#000000" points="2735.8207,-159.5001 2725.8207,-163 2735.8207,-166.5001 2735.8207,-159.5001"/>
</g>
<!-- ConfirmEmailComponent -->
<g id="node12" class="node">
<title>ConfirmEmailComponent</title>
<polygon fill="#ffffb3" stroke="#000000" points="3580.2105,-122 3417.7895,-122 3417.7895,-86 3580.2105,-86 3580.2105,-122"/>
<text text-anchor="middle" x="3499" y="-99.8" font-family="Times,serif" font-size="14.00" fill="#000000">ConfirmEmailComponent</text>
</g>
<!-- ConfirmEmailComponent&#45;&gt;AppModule -->
<g id="edge12" class="edge">
<title>ConfirmEmailComponent&#45;&gt;AppModule</title>
<path fill="none" stroke="#000000" d="M3499,-122.027C3499,-138.3976 3499,-160 3499,-160 3499,-160 2735.8187,-160 2735.8187,-160"/>
<polygon fill="#000000" stroke="#000000" points="2735.8187,-156.5001 2725.8187,-160 2735.8186,-163.5001 2735.8187,-156.5001"/>
</g>
<!-- ConfirmPhoneNumberComponent -->
<g id="node13" class="node">
<title>ConfirmPhoneNumberComponent</title>
<polygon fill="#ffffb3" stroke="#000000" points="3399.6413,-122 3190.3587,-122 3190.3587,-86 3399.6413,-86 3399.6413,-122"/>
<text text-anchor="middle" x="3295" y="-99.8" font-family="Times,serif" font-size="14.00" fill="#000000">ConfirmPhoneNumberComponent</text>
</g>
<!-- ConfirmPhoneNumberComponent&#45;&gt;AppModule -->
<g id="edge13" class="edge">
<title>ConfirmPhoneNumberComponent&#45;&gt;AppModule</title>
<path fill="none" stroke="#000000" d="M3295,-122.2819C3295,-137.9478 3295,-158 3295,-158 3295,-158 2735.9965,-158 2735.9965,-158"/>
<polygon fill="#000000" stroke="#000000" points="2735.9965,-154.5001 2725.9965,-158 2735.9965,-161.5001 2735.9965,-154.5001"/>
</g>
<!-- ContactComponent -->
<g id="node14" class="node">
<title>ContactComponent</title>
<polygon fill="#ffffb3" stroke="#000000" points="3172.3795,-122 3047.6205,-122 3047.6205,-86 3172.3795,-86 3172.3795,-122"/>
<text text-anchor="middle" x="3110" y="-99.8" font-family="Times,serif" font-size="14.00" fill="#000000">ContactComponent</text>
</g>
<!-- ContactComponent&#45;&gt;AppModule -->
<g id="edge14" class="edge">
<title>ContactComponent&#45;&gt;AppModule</title>
<path fill="none" stroke="#000000" d="M3110,-122.1871C3110,-137.1824 3110,-156 3110,-156 3110,-156 2736.0124,-156 2736.0124,-156"/>
<polygon fill="#000000" stroke="#000000" points="2736.0124,-152.5001 2726.0124,-156 2736.0123,-159.5001 2736.0124,-152.5001"/>
</g>
<!-- DeleteAccountComponent -->
<g id="node15" class="node">
<title>DeleteAccountComponent</title>
<polygon fill="#ffffb3" stroke="#000000" points="3029.7907,-122 2864.2093,-122 2864.2093,-86 3029.7907,-86 3029.7907,-122"/>
<text text-anchor="middle" x="2947" y="-99.8" font-family="Times,serif" font-size="14.00" fill="#000000">DeleteAccountComponent</text>
</g>
<!-- DeleteAccountComponent&#45;&gt;AppModule -->
<g id="edge15" class="edge">
<title>DeleteAccountComponent&#45;&gt;AppModule</title>
<path fill="none" stroke="#000000" d="M2947,-122.0511C2947,-136.373 2947,-154 2947,-154 2947,-154 2735.6731,-154 2735.6731,-154"/>
<polygon fill="#000000" stroke="#000000" points="2735.6732,-150.5001 2725.6731,-154 2735.6731,-157.5001 2735.6732,-150.5001"/>
</g>
<!-- DeleteCarComponent -->
<g id="node16" class="node">
<title>DeleteCarComponent</title>
<polygon fill="#ffffb3" stroke="#000000" points="2846.0758,-122 2707.9242,-122 2707.9242,-86 2846.0758,-86 2846.0758,-122"/>
<text text-anchor="middle" x="2777" y="-99.8" font-family="Times,serif" font-size="14.00" fill="#000000">DeleteCarComponent</text>
</g>
<!-- DeleteCarComponent&#45;&gt;AppModule -->
<g id="edge16" class="edge">
<title>DeleteCarComponent&#45;&gt;AppModule</title>
<path fill="none" stroke="#000000" d="M2716.8952,-122.1061C2716.8952,-122.1061 2716.8952,-140.991 2716.8952,-140.991"/>
<polygon fill="#000000" stroke="#000000" points="2713.3952,-140.9909 2716.8952,-150.991 2720.3952,-140.991 2713.3952,-140.9909"/>
</g>
<!-- DeleteLoggerDeviceComponent -->
<g id="node17" class="node">
<title>DeleteLoggerDeviceComponent</title>
<polygon fill="#ffffb3" stroke="#000000" points="2689.9328,-122 2492.0672,-122 2492.0672,-86 2689.9328,-86 2689.9328,-122"/>
<text text-anchor="middle" x="2591" y="-99.8" font-family="Times,serif" font-size="14.00" fill="#000000">DeleteLoggerDeviceComponent</text>
</g>
<!-- DeleteLoggerDeviceComponent&#45;&gt;AppModule -->
<g id="edge17" class="edge">
<title>DeleteLoggerDeviceComponent&#45;&gt;AppModule</title>
<path fill="none" stroke="#000000" d="M2666.0691,-122.1061C2666.0691,-122.1061 2666.0691,-140.991 2666.0691,-140.991"/>
<polygon fill="#000000" stroke="#000000" points="2662.5692,-140.9909 2666.0691,-150.991 2669.5692,-140.991 2662.5692,-140.9909"/>
</g>
<!-- DeleteUserComponent -->
<g id="node18" class="node">
<title>DeleteUserComponent</title>
<polygon fill="#ffffb3" stroke="#000000" points="2474.2907,-122 2329.7093,-122 2329.7093,-86 2474.2907,-86 2474.2907,-122"/>
<text text-anchor="middle" x="2402" y="-99.8" font-family="Times,serif" font-size="14.00" fill="#000000">DeleteUserComponent</text>
</g>
<!-- DeleteUserComponent&#45;&gt;AppModule -->
<g id="edge18" class="edge">
<title>DeleteUserComponent&#45;&gt;AppModule</title>
<path fill="none" stroke="#000000" d="M2402,-122.0511C2402,-136.373 2402,-154 2402,-154 2402,-154 2632.0863,-154 2632.0863,-154"/>
<polygon fill="#000000" stroke="#000000" points="2632.0863,-157.5001 2642.0863,-154 2632.0862,-150.5001 2632.0863,-157.5001"/>
</g>
<!-- HomeComponent -->
<g id="node19" class="node">
<title>HomeComponent</title>
<polygon fill="#ffffb3" stroke="#000000" points="2311.5451,-122 2196.4549,-122 2196.4549,-86 2311.5451,-86 2311.5451,-122"/>
<text text-anchor="middle" x="2254" y="-99.8" font-family="Times,serif" font-size="14.00" fill="#000000">HomeComponent</text>
</g>
<!-- HomeComponent&#45;&gt;AppModule -->
<g id="edge19" class="edge">
<title>HomeComponent&#45;&gt;AppModule</title>
<path fill="none" stroke="#000000" d="M2254,-122.1871C2254,-137.1824 2254,-156 2254,-156 2254,-156 2631.9869,-156 2631.9869,-156"/>
<polygon fill="#000000" stroke="#000000" points="2631.9869,-159.5001 2641.9869,-156 2631.9868,-152.5001 2631.9869,-159.5001"/>
</g>
<!-- ListOfUsersComponent -->
<g id="node20" class="node">
<title>ListOfUsersComponent</title>
<polygon fill="#ffffb3" stroke="#000000" points="2177.7492,-122 2028.2508,-122 2028.2508,-86 2177.7492,-86 2177.7492,-122"/>
<text text-anchor="middle" x="2103" y="-99.8" font-family="Times,serif" font-size="14.00" fill="#000000">ListOfUsersComponent</text>
</g>
<!-- ListOfUsersComponent&#45;&gt;AppModule -->
<g id="edge20" class="edge">
<title>ListOfUsersComponent&#45;&gt;AppModule</title>
<path fill="none" stroke="#000000" d="M2103,-122.2819C2103,-137.9478 2103,-158 2103,-158 2103,-158 2632.2159,-158 2632.2159,-158"/>
<polygon fill="#000000" stroke="#000000" points="2632.2159,-161.5001 2642.2159,-158 2632.2159,-154.5001 2632.2159,-161.5001"/>
</g>
<!-- LoggerDeviceDetailsComponent -->
<g id="node21" class="node">
<title>LoggerDeviceDetailsComponent</title>
<polygon fill="#ffffb3" stroke="#000000" points="2010.5534,-122 1809.4466,-122 1809.4466,-86 2010.5534,-86 2010.5534,-122"/>
<text text-anchor="middle" x="1910" y="-99.8" font-family="Times,serif" font-size="14.00" fill="#000000">LoggerDeviceDetailsComponent</text>
</g>
<!-- LoggerDeviceDetailsComponent&#45;&gt;AppModule -->
<g id="edge21" class="edge">
<title>LoggerDeviceDetailsComponent&#45;&gt;AppModule</title>
<path fill="none" stroke="#000000" d="M1910,-122.027C1910,-138.3976 1910,-160 1910,-160 1910,-160 2632.112,-160 2632.112,-160"/>
<polygon fill="#000000" stroke="#000000" points="2632.112,-163.5001 2642.112,-160 2632.1119,-156.5001 2632.112,-163.5001"/>
</g>
<!-- LoginComponent -->
<g id="node22" class="node">
<title>LoginComponent</title>
<polygon fill="#ffffb3" stroke="#000000" points="1791.2758,-122 1676.7242,-122 1676.7242,-86 1791.2758,-86 1791.2758,-122"/>
<text text-anchor="middle" x="1734" y="-99.8" font-family="Times,serif" font-size="14.00" fill="#000000">LoginComponent</text>
</g>
<!-- LoginComponent&#45;&gt;AppModule -->
<g id="edge22" class="edge">
<title>LoginComponent&#45;&gt;AppModule</title>
<path fill="none" stroke="#000000" d="M1734,-122.0225C1734,-139.3734 1734,-163 1734,-163 1734,-163 2632.2619,-163 2632.2619,-163"/>
<polygon fill="#000000" stroke="#000000" points="2632.2619,-166.5001 2642.2619,-163 2632.2618,-159.5001 2632.2619,-166.5001"/>
</g>
<!-- LogoutPageComponent -->
<g id="node23" class="node">
<title>LogoutPageComponent</title>
<polygon fill="#ffffb3" stroke="#000000" points="1658.4874,-122 1509.5126,-122 1509.5126,-86 1658.4874,-86 1658.4874,-122"/>
<text text-anchor="middle" x="1584" y="-99.8" font-family="Times,serif" font-size="14.00" fill="#000000">LogoutPageComponent</text>
</g>
<!-- LogoutPageComponent&#45;&gt;AppModule -->
<g id="edge23" class="edge">
<title>LogoutPageComponent&#45;&gt;AppModule</title>
<path fill="none" stroke="#000000" d="M1584,-122.302C1584,-140.2699 1584,-165 1584,-165 1584,-165 2632.2219,-165 2632.2219,-165"/>
<polygon fill="#000000" stroke="#000000" points="2632.2219,-168.5001 2642.2219,-165 2632.2219,-161.5001 2632.2219,-168.5001"/>
</g>
<!-- ProfileComponent -->
<g id="node24" class="node">
<title>ProfileComponent</title>
<polygon fill="#ffffb3" stroke="#000000" points="1491.9328,-122 1372.0672,-122 1372.0672,-86 1491.9328,-86 1491.9328,-122"/>
<text text-anchor="middle" x="1432" y="-99.8" font-family="Times,serif" font-size="14.00" fill="#000000">ProfileComponent</text>
</g>
<!-- ProfileComponent&#45;&gt;AppModule -->
<g id="edge24" class="edge">
<title>ProfileComponent&#45;&gt;AppModule</title>
<path fill="none" stroke="#000000" d="M1432,-122.2222C1432,-140.8285 1432,-167 1432,-167 1432,-167 2631.9857,-167 2631.9857,-167"/>
<polygon fill="#000000" stroke="#000000" points="2631.9858,-170.5001 2641.9857,-167 2631.9857,-163.5001 2631.9858,-170.5001"/>
</g>
<!-- RegisterComponent -->
<g id="node25" class="node">
<title>RegisterComponent</title>
<polygon fill="#ffffb3" stroke="#000000" points="1353.9846,-122 1226.0154,-122 1226.0154,-86 1353.9846,-86 1353.9846,-122"/>
<text text-anchor="middle" x="1290" y="-99.8" font-family="Times,serif" font-size="14.00" fill="#000000">RegisterComponent</text>
</g>
<!-- RegisterComponent&#45;&gt;AppModule -->
<g id="edge25" class="edge">
<title>RegisterComponent&#45;&gt;AppModule</title>
<path fill="none" stroke="#000000" d="M1290,-122.1061C1290,-141.3391 1290,-169 1290,-169 1290,-169 2632.2803,-169 2632.2803,-169"/>
<polygon fill="#000000" stroke="#000000" points="2632.2804,-172.5001 2642.2803,-169 2632.2803,-165.5001 2632.2804,-172.5001"/>
</g>
<!-- ResetPasswordComponent -->
<g id="node26" class="node">
<title>ResetPasswordComponent</title>
<polygon fill="#ffffb3" stroke="#000000" points="1208.087,-122 1041.913,-122 1041.913,-86 1208.087,-86 1208.087,-122"/>
<text text-anchor="middle" x="1125" y="-99.8" font-family="Times,serif" font-size="14.00" fill="#000000">ResetPasswordComponent</text>
</g>
<!-- ResetPasswordComponent&#45;&gt;AppModule -->
<g id="edge26" class="edge">
<title>ResetPasswordComponent&#45;&gt;AppModule</title>
<path fill="none" stroke="#000000" d="M1125,-122.2228C1125,-142.3652 1125,-172 1125,-172 1125,-172 2632.3005,-172 2632.3005,-172"/>
<polygon fill="#000000" stroke="#000000" points="2632.3006,-175.5001 2642.3005,-172 2632.3005,-168.5001 2632.3006,-175.5001"/>
</g>
<!-- UserProfileComponent -->
<g id="node27" class="node">
<title>UserProfileComponent</title>
<polygon fill="#ffffb3" stroke="#000000" points="1023.8585,-122 878.1415,-122 878.1415,-86 1023.8585,-86 1023.8585,-122"/>
<text text-anchor="middle" x="951" y="-99.8" font-family="Times,serif" font-size="14.00" fill="#000000">UserProfileComponent</text>
</g>
<!-- UserProfileComponent&#45;&gt;AppModule -->
<g id="edge27" class="edge">
<title>UserProfileComponent&#45;&gt;AppModule</title>
<path fill="none" stroke="#000000" d="M951,-122.0267C951,-142.7672 951,-174 951,-174 951,-174 2632.0202,-174 2632.0202,-174"/>
<polygon fill="#000000" stroke="#000000" points="2632.0203,-177.5001 2642.0202,-174 2632.0202,-170.5001 2632.0203,-177.5001"/>
</g>
<!-- AppComponent  -->
<g id="node31" class="node">
<title>AppComponent </title>
<polygon fill="#80b1d3" stroke="#000000" points="2738.439,-252 2629.561,-252 2629.561,-216 2738.439,-216 2738.439,-252"/>
<text text-anchor="middle" x="2684" y="-229.8" font-family="Times,serif" font-size="14.00" fill="#000000">AppComponent </text>
</g>
<!-- AppModule&#45;&gt;AppComponent  -->
<g id="edge30" class="edge">
<title>AppModule&#45;&gt;AppComponent </title>
<path fill="none" stroke="#000000" stroke-dasharray="1,5" d="M2684,-187.1061C2684,-187.1061 2684,-205.991 2684,-205.991"/>
<polygon fill="#000000" stroke="#000000" points="2680.5001,-205.9909 2684,-215.991 2687.5001,-205.991 2680.5001,-205.9909"/>
</g>
<!-- AppMaterialModule -->
<g id="node29" class="node">
<title>AppMaterialModule</title>
<polygon fill="#8dd3c7" stroke="#000000" points="853.5772,-122 850.5772,-126 829.5772,-126 826.5772,-122 722.4228,-122 722.4228,-86 853.5772,-86 853.5772,-122"/>
<text text-anchor="middle" x="788" y="-99.8" font-family="Times,serif" font-size="14.00" fill="#000000">AppMaterialModule</text>
</g>
<!-- AppMaterialModule&#45;&gt;AppModule -->
<g id="edge28" class="edge">
<title>AppMaterialModule&#45;&gt;AppModule</title>
<path fill="none" stroke="#000000" d="M788,-122.1686C788,-143.498 788,-176 788,-176 788,-176 2632.1897,-176 2632.1897,-176"/>
<polygon fill="#000000" stroke="#000000" points="2632.1897,-179.5001 2642.1897,-176 2632.1896,-172.5001 2632.1897,-179.5001"/>
</g>
<!-- AppRoutingModule -->
<g id="node30" class="node">
<title>AppRoutingModule</title>
<polygon fill="#8dd3c7" stroke="#000000" points="704.2744,-122 701.2744,-126 680.2744,-126 677.2744,-122 575.7256,-122 575.7256,-86 704.2744,-86 704.2744,-122"/>
<text text-anchor="middle" x="640" y="-99.8" font-family="Times,serif" font-size="14.00" fill="#000000">AppRoutingModule</text>
</g>
<!-- AppRoutingModule&#45;&gt;AppModule -->
<g id="edge29" class="edge">
<title>AppRoutingModule&#45;&gt;AppModule</title>
<path fill="none" stroke="#000000" d="M640,-122.2921C640,-144.2057 640,-178 640,-178 640,-178 2632.2441,-178 2632.2441,-178"/>
<polygon fill="#000000" stroke="#000000" points="2632.2441,-181.5001 2642.2441,-178 2632.2441,-174.5001 2632.2441,-181.5001"/>
</g>
<!-- ConnectionService -->
<g id="node32" class="node">
<title>ConnectionService</title>
<ellipse fill="#fdb462" stroke="#000000" cx="467" cy="-104" rx="84.5305" ry="18"/>
<text text-anchor="middle" x="467" y="-99.8" font-family="Times,serif" font-size="14.00" fill="#000000">ConnectionService</text>
</g>
<!-- ConnectionService&#45;&gt;AppModule -->
<g id="edge31" class="edge">
<title>ConnectionService&#45;&gt;AppModule</title>
<path fill="none" stroke="#000000" d="M467,-122.2479C467,-145.0179 467,-181 467,-181 467,-181 2632.1799,-181 2632.1799,-181"/>
<polygon fill="#000000" stroke="#000000" points="2632.18,-184.5001 2642.1799,-181 2632.1799,-177.5001 2632.18,-184.5001"/>
</g>
<!-- StyleManagerService -->
<g id="node33" class="node">
<title>StyleManagerService</title>
<ellipse fill="#fdb462" stroke="#000000" cx="270" cy="-104" rx="94.3176" ry="18"/>
<text text-anchor="middle" x="270" y="-99.8" font-family="Times,serif" font-size="14.00" fill="#000000">StyleManagerService</text>
</g>
<!-- StyleManagerService&#45;&gt;AppModule -->
<g id="edge32" class="edge">
<title>StyleManagerService&#45;&gt;AppModule</title>
<path fill="none" stroke="#000000" d="M270,-122.3228C270,-145.6602 270,-183 270,-183 270,-183 2632.1005,-183 2632.1005,-183"/>
<polygon fill="#000000" stroke="#000000" points="2632.1005,-186.5001 2642.1005,-183 2632.1005,-179.5001 2632.1005,-186.5001"/>
</g>
<!-- ThemeService -->
<g id="node34" class="node">
<title>ThemeService</title>
<ellipse fill="#fdb462" stroke="#000000" cx="91" cy="-104" rx="66.6113" ry="18"/>
<text text-anchor="middle" x="91" y="-99.8" font-family="Times,serif" font-size="14.00" fill="#000000">ThemeService</text>
</g>
<!-- ThemeService&#45;&gt;AppModule -->
<g id="edge33" class="edge">
<title>ThemeService&#45;&gt;AppModule</title>
<path fill="none" stroke="#000000" d="M91,-122.3802C91,-146.2785 91,-185 91,-185 91,-185 2632.2199,-185 2632.2199,-185"/>
<polygon fill="#000000" stroke="#000000" points="2632.2199,-188.5001 2642.2199,-185 2632.2199,-181.5001 2632.2199,-188.5001"/>
</g>
</g>
</svg>
